<svg width="24" height="25" viewBox="0 0 24 25" fill="none" xmlns="http://www.w3.org/2000/svg">
<g filter="url(#filter0_d)">
<path fill-rule="evenodd" clip-rule="evenodd" d="M10.5 13.5C7.18629 13.5 4.5 10.8137 4.5 7.5C4.5 4.18629 7.18629 1.5 10.5 1.5C13.8137 1.5 16.5 4.18629 16.5 7.5C16.5 8.88653 16.0297 10.1632 15.2399 11.1792L19.2803 15.2197L18.2197 16.2803L14.1792 12.2399C13.1632 13.0297 11.8865 13.5 10.5 13.5ZM15 7.5C15 9.98528 12.9853 12 10.5 12C8.01472 12 6 9.98528 6 7.5C6 5.01472 8.01472 3 10.5 3C12.9853 3 15 5.01472 15 7.5Z" fill="#A3A3A3"/>
</g>
<defs>
<filter id="filter0_d" x="-1" y="0" width="26" height="26" filterUnits="userSpaceOnUse" color-interpolation-filters="sRGB">
<feFlood flood-opacity="0" result="BackgroundImageFix"/>
<feColorMatrix in="SourceAlpha" type="matrix" values="0 0 0 0 0 0 0 0 0 0 0 0 0 0 0 0 0 0 127 0"/>
<feOffset dy="4"/>
<feGaussianBlur stdDeviation="2"/>
<feColorMatrix type="matrix" values="0 0 0 0 0 0 0 0 0 0 0 0 0 0 0 0 0 0 0.25 0"/>
<feBlend mode="normal" in2="BackgroundImageFix" result="effect1_dropShadow"/>
<feBlend mode="normal" in="SourceGraphic" in2="effect1_dropShadow" result="shape"/>
</filter>
</defs>
</svg>
